<svg viewBox="0 0 640 480" xmlns="http://www.w3.org/2000/svg">
<defs><radialGradient id="bg" cx="0.3" cy="0.25" r="0.9"><stop offset="0" stop-color="#F0C482"/><stop offset="1" stop-color="#D98A2B"/></radialGradient><radialGradient id="g55_0" cx="0.35" cy="0.3" r="1.1"><stop offset="0" stop-color="#2888BA"/><stop offset="1" stop-color="#2888BA"/></radialGradient><radialGradient id="g55_1" cx="0.35" cy="0.3" r="1.1"><stop offset="0" stop-color="#8CC29E"/><stop offset="1" stop-color="#8CC29E"/></radialGradient><radialGradient id="g55_2" cx="0.35" cy="0.3" r="1.1"><stop offset="0" stop-color="#2888BA"/><stop offset="1" stop-color="#2888BA"/></radialGradient></defs>
<rect width="640" height="480" fill="url(#bg)"/><path d="M 362.8 348.2 C 366.8 375.3 322.0 412.8 297.7 439.4 C 273.4 466.1 243.9 508.1 217.1 508.0 C 190.2 507.8 168.6 455.4 136.6 438.7 C 104.7 422.0 38.2 430.7 25.2 407.7 C 12.2 384.8 44.5 333.1 58.9 300.8 C 73.3 268.6 86.8 224.7 111.7 214.4 C 136.5 204.0 181.1 228.4 208.2 238.8 C 235.3 249.2 248.3 258.4 274.1 276.7 C 299.9 294.9 358.9 321.0 362.8 348.2 Z" fill="url(#g55_0)" opacity="0.64"/><path d="M 326.9 164.1 C 323.4 200.1 322.8 236.2 304.1 263.6 C 285.3 291.0 242.6 330.8 214.5 328.6 C 186.4 326.4 159.2 270.9 135.7 250.3 C 112.3 229.6 94.2 229.5 73.9 204.7 C 53.7 180.0 6.7 127.6 14.3 101.8 C 21.9 76.0 86.4 66.2 119.6 50.0 C 152.8 33.7 179.5 4.8 213.7 4.4 C 247.8 4.0 305.8 20.7 324.6 47.4 C 343.5 74.0 330.3 128.1 326.9 164.1 Z" fill="url(#g55_1)" opacity="0.83"/><path d="M 551.5 233.3 C 545.5 263.9 543.1 283.7 528.7 310.0 C 514.3 336.3 495.7 377.4 465.1 391.2 C 434.5 405.0 377.7 409.1 345.1 393.0 C 312.4 376.9 282.0 331.3 269.3 294.4 C 256.5 257.6 251.7 201.5 268.5 171.8 C 285.3 142.2 337.5 130.9 370.0 116.7 C 402.4 102.5 430.6 85.0 463.2 86.6 C 495.7 88.2 550.4 101.6 565.1 126.0 C 579.9 150.5 557.6 202.6 551.5 233.3 Z" fill="url(#g55_2)" opacity="0.67"/><circle cx="379.4" cy="69.3" r="2.77" fill="#FFFFFF" opacity="0.48"/>
<circle cx="356.4" cy="317.4" r="2.33" fill="#FFFFFF" opacity="0.30"/>
<circle cx="88.3" cy="357.3" r="3.72" fill="#FFFFFF" opacity="0.18"/>
<circle cx="409.3" cy="490.8" r="2.57" fill="#FFFFFF" opacity="0.44"/>
<circle cx="564.5" cy="396.6" r="4.39" fill="#FFFFFF" opacity="0.30"/>
<circle cx="189.1" cy="353.4" r="2.37" fill="#FFFFFF" opacity="0.20"/>
<circle cx="301.2" cy="511.6" r="1.93" fill="#FFFFFF" opacity="0.54"/>
<circle cx="287.6" cy="522.4" r="3.13" fill="#FFFFFF" opacity="0.49"/>
<circle cx="453.1" cy="265.4" r="3.45" fill="#FFFFFF" opacity="0.39"/>
<circle cx="323.3" cy="207.8" r="1.88" fill="#FFFFFF" opacity="0.27"/>
<circle cx="292.5" cy="318.0" r="2.75" fill="#FFFFFF" opacity="0.48"/>
<circle cx="509.4" cy="230.6" r="2.21" fill="#FFFFFF" opacity="0.31"/>
<circle cx="307.5" cy="220.3" r="3.23" fill="#FFFFFF" opacity="0.19"/>
<circle cx="172.8" cy="480.9" r="1.62" fill="#FFFFFF" opacity="0.32"/>
<circle cx="398.1" cy="98.7" r="3.00" fill="#FFFFFF" opacity="0.21"/>
<circle cx="66.8" cy="370.8" r="2.74" fill="#FFFFFF" opacity="0.23"/>
<circle cx="447.3" cy="313.2" r="4.18" fill="#FFFFFF" opacity="0.36"/>
<circle cx="448.7" cy="330.4" r="3.41" fill="#FFFFFF" opacity="0.23"/>
<circle cx="163.9" cy="491.3" r="4.60" fill="#FFFFFF" opacity="0.29"/>
<circle cx="151.9" cy="411.5" r="3.37" fill="#FFFFFF" opacity="0.55"/>
<circle cx="535.6" cy="241.1" r="2.38" fill="#FFFFFF" opacity="0.34"/>
<circle cx="145.0" cy="167.2" r="3.09" fill="#FFFFFF" opacity="0.25"/>
<circle cx="280.7" cy="439.1" r="2.75" fill="#FFFFFF" opacity="0.30"/>
<circle cx="210.7" cy="501.9" r="1.56" fill="#FFFFFF" opacity="0.51"/>
<circle cx="605.7" cy="214.5" r="4.69" fill="#FFFFFF" opacity="0.27"/>
<circle cx="198.2" cy="94.4" r="4.03" fill="#FFFFFF" opacity="0.29"/>
<circle cx="392.2" cy="266.3" r="3.32" fill="#FFFFFF" opacity="0.46"/>
<circle cx="176.3" cy="417.0" r="4.08" fill="#FFFFFF" opacity="0.45"/>
<circle cx="447.0" cy="469.9" r="1.81" fill="#FFFFFF" opacity="0.39"/>
<circle cx="531.8" cy="235.4" r="3.46" fill="#FFFFFF" opacity="0.47"/>
<circle cx="263.8" cy="232.0" r="4.68" fill="#FFFFFF" opacity="0.22"/>
<circle cx="457.4" cy="295.7" r="3.43" fill="#FFFFFF" opacity="0.16"/>
<circle cx="438.4" cy="290.5" r="3.21" fill="#FFFFFF" opacity="0.38"/>
<circle cx="495.3" cy="432.7" r="3.33" fill="#FFFFFF" opacity="0.31"/>
<circle cx="154.6" cy="372.6" r="4.79" fill="#FFFFFF" opacity="0.50"/>
<circle cx="457.8" cy="238.5" r="2.45" fill="#FFFFFF" opacity="0.45"/>
<circle cx="402.6" cy="357.8" r="3.40" fill="#FFFFFF" opacity="0.36"/>
<circle cx="448.4" cy="474.9" r="4.22" fill="#FFFFFF" opacity="0.39"/>
<circle cx="299.7" cy="461.2" r="3.25" fill="#FFFFFF" opacity="0.29"/>
<circle cx="174.9" cy="270.0" r="2.16" fill="#FFFFFF" opacity="0.23"/>
<circle cx="109.4" cy="121.2" r="1.58" fill="#FFFFFF" opacity="0.38"/>
<circle cx="440.0" cy="462.5" r="2.52" fill="#FFFFFF" opacity="0.48"/>
<circle cx="534.2" cy="359.0" r="3.61" fill="#FFFFFF" opacity="0.22"/>
<circle cx="410.0" cy="-20.0" r="3.32" fill="#FFFFFF" opacity="0.31"/>
<circle cx="436.9" cy="31.5" r="3.20" fill="#FFFFFF" opacity="0.39"/>
<circle cx="113.5" cy="380.3" r="3.82" fill="#FFFFFF" opacity="0.33"/>
<circle cx="197.0" cy="45.2" r="2.94" fill="#FFFFFF" opacity="0.28"/>
<circle cx="444.4" cy="169.7" r="3.04" fill="#FFFFFF" opacity="0.28"/>
<circle cx="222.3" cy="-21.7" r="4.24" fill="#FFFFFF" opacity="0.48"/>
<circle cx="241.3" cy="193.3" r="4.99" fill="#FFFFFF" opacity="0.33"/>
<circle cx="218.6" cy="274.1" r="3.73" fill="#FFFFFF" opacity="0.47"/>
<circle cx="165.5" cy="195.9" r="4.58" fill="#FFFFFF" opacity="0.49"/>
<circle cx="305.7" cy="37.5" r="4.46" fill="#FFFFFF" opacity="0.15"/>
<circle cx="397.3" cy="251.9" r="2.04" fill="#FFFFFF" opacity="0.52"/>
<circle cx="240.4" cy="515.6" r="2.36" fill="#FFFFFF" opacity="0.27"/>
<circle cx="474.7" cy="382.1" r="4.92" fill="#FFFFFF" opacity="0.37"/>
<circle cx="229.0" cy="510.4" r="1.96" fill="#FFFFFF" opacity="0.41"/>
<circle cx="214.2" cy="140.3" r="2.43" fill="#FFFFFF" opacity="0.39"/>
<circle cx="378.0" cy="6.5" r="4.28" fill="#FFFFFF" opacity="0.42"/>
<circle cx="441.2" cy="244.7" r="3.88" fill="#FFFFFF" opacity="0.21"/></svg>